<?xml version="1.0" standalone="no"?>
<!DOCTYPE svg PUBLIC "-//W3C//DTD SVG 20010904//EN"
 "http://www.w3.org/TR/2001/REC-SVG-20010904/DTD/svg10.dtd">
<svg  fill="#FFF" version="1.0" xmlns="http://www.w3.org/2000/svg"
 width="512.000000pt" height="512.000000pt" viewBox="0 0 512.000000 512.000000"
 preserveAspectRatio="xMidYMid meet">

<g transform="translate(0.000000,512.000000) scale(0.100000,-0.100000)"
 stroke="none">
<path d="M2363 5109 c-430 -31 -865 -182 -1224 -425 -164 -110 -242 -175 -394
-328 -293 -295 -492 -620 -618 -1012 -164 -509 -164 -1059 0 -1568 128 -397
326 -719 628 -1021 302 -302 624 -500 1021 -628 509 -164 1059 -164 1568 0
397 128 719 326 1021 628 302 302 500 624 628 1021 164 509 164 1059 0 1568
-92 284 -215 520 -407 776 -82 109 -317 350 -425 435 -421 331 -899 517 -1426
555 -156 11 -209 11 -372 -1z m907 -1269 l0 -290 -206 0 c-314 0 -308 6 -312
-292 l-3 -208 260 0 261 0 -4 -22 c-3 -13 -17 -146 -32 -295 l-28 -273 -228 0
-228 0 0 -840 0 -840 -347 2 -348 3 -3 838 -2 837 -165 0 -165 0 0 295 0 295
164 0 164 0 4 248 c5 276 16 344 74 471 59 129 148 223 269 283 130 65 210 76
573 77 l302 1 0 -290z"/>
</g>
</svg>
